<svg width="568" height="686" viewBox="0 0 568 686" fill="none" xmlns="http://www.w3.org/2000/svg">
<path d="M29.5723 126.101C56.6915 68.6351 105.588 15.7686 163.204 3.49277C220.837 -9.18425 287.188 18.7295 343.758 51.428C400.344 83.7252 446.734 121.19 489.107 168.926C531.066 217.045 569.009 275.434 567.436 333.248C566.279 390.679 525.622 447.132 484.352 508.784C443.498 570.053 401.616 636.903 340.884 666.725C279.737 696.931 198.926 690.474 146.29 649.511C93.2546 608.531 68.3776 533.445 46.9933 470.577C25.6089 407.708 8.11599 357.075 2.43078 300.944C-3.65308 244.794 2.07078 183.148 29.5723 126.101Z" fill="#415A77"/>
</svg>
