<?xml version="1.0" encoding="UTF-8" standalone="no"?>
<svg
   viewBox="0 0 200 200"
   version="1.1"
   id="svg27"
   sodipodi:docname="blob2.svg"
   inkscape:version="1.1.1 (3bf5ae0d25, 2021-09-20)"
   xmlns:inkscape="http://www.inkscape.org/namespaces/inkscape"
   xmlns:sodipodi="http://sodipodi.sourceforge.net/DTD/sodipodi-0.dtd"
   xmlns="http://www.w3.org/2000/svg"
   xmlns:svg="http://www.w3.org/2000/svg">
  <defs
     id="defs31" />
  <sodipodi:namedview
     id="namedview29"
     pagecolor="#505050"
     bordercolor="#eeeeee"
     borderopacity="1"
     inkscape:pageshadow="0"
     inkscape:pageopacity="0"
     inkscape:pagecheckerboard="0"
     showgrid="false"
     inkscape:zoom="4.005"
     inkscape:cx="96.50437"
     inkscape:cy="99.875156"
     inkscape:window-width="1284"
     inkscape:window-height="1032"
     inkscape:window-x="455"
     inkscape:window-y="60"
     inkscape:window-maximized="0"
     inkscape:current-layer="svg27" />
  <path
     fill="#193B59"
     d="M45.3,-58C59.9,-51.8,73.6,-40.1,77.3,-25.8C81.1,-11.5,74.9,5.4,67.4,19.9C60,34.4,51.2,46.4,39.8,57.5C28.3,68.5,14.2,78.6,-0.2,78.8C-14.5,79.1,-29,69.5,-44.8,59.8C-60.5,50.2,-77.6,40.4,-85.7,25.5C-93.9,10.5,-93.2,-9.8,-83.6,-23.4C-74,-37.1,-55.6,-44.1,-40.2,-50.1C-24.8,-56.1,-12.4,-61,1.5,-63C15.4,-65.1,30.8,-64.3,45.3,-58Z"
     transform="translate(100 100)"
     id="path25" />
  <path
     style="fill:#778da9;fill-opacity:1;stroke-width:0.25;stroke-miterlimit:4;stroke-dasharray:none"
     d="M 93.383271,178.18336 C 86.265189,176.87025 78.244879,173.48994 68.197995,167.56855 61.28434,163.4938 43.71961,152.63448 39.368784,149.74501 21.092866,137.60759 12.851807,127.23482 9.7197621,112.42668 8.8360174,108.24838 8.5911239,100.09802 9.218838,95.755306 11.317662,81.234996 18.597813,70.856424 32.578273,62.45413 39.384062,58.363832 45.749873,55.484206 61.548065,49.349404 81.192494,41.721021 89.557983,39.094298 99.37578,37.471683 c 6.68157,-1.104282 8.71406,-1.265196 15.85518,-1.255268 7.08987,0.0099 9.52423,0.225753 15.35581,1.361866 17.07996,3.327533 33.1192,13.19484 41.3566,25.442496 4.52429,6.726873 6.29452,12.486134 6.30106,20.499822 0.007,8.947139 -2.54142,18.523581 -8.1405,30.586771 -7.43999,16.02942 -16.77829,29.58289 -28.55782,41.44841 -12.23548,12.32478 -24.48464,20.06598 -35.5536,22.46908 -2.96461,0.64363 -9.531988,0.72618 -12.609239,0.1585 z"
     id="path226" />
</svg>
