<?xml version="1.0" standalone="no"?>
<svg viewBox="0 0 200 200" xmlns="http://www.w3.org/2000/svg">
  <path fill="#193B59" d="M41.1,-61.2C52.3,-56.8,59.7,-43.7,68.2,-29.8C76.8,-15.8,86.4,-1,82.9,10.8C79.4,22.5,62.8,31.3,51.2,43.9C39.6,56.6,33,73.2,22.9,74.7C12.8,76.1,-0.7,62.4,-14,55.1C-27.2,47.8,-40.1,46.8,-52,40.8C-63.9,34.7,-74.8,23.5,-76.9,10.9C-79.1,-1.8,-72.4,-15.9,-66,-30.2C-59.6,-44.4,-53.3,-58.8,-42.3,-63.3C-31.4,-67.8,-15.7,-62.5,-0.4,-61.9C15,-61.4,30,-65.6,41.1,-61.2Z" transform="translate(100 100)" />
</svg>
